<?xml version="1.0" encoding="UTF-8" standalone="no"?>
<!-- Created with Inkscape (http://www.inkscape.org/) -->
<svg xmlns="http://www.w3.org/2000/svg" xmlns:svg="http://www.w3.org/2000/svg" version="1.1" id="svg558" width="682.66669" height="682.66669" viewBox="0 0 682.66669 682.66669">
  <defs id="defs562">
    <clipPath clipPathUnits="userSpaceOnUse" id="clipPath572">
      <path d="M 0,512 H 512 V 0 H 0 Z" id="path570"/>
    </clipPath>
  </defs>
  <mask id="custom"><rect id="bg" x="0" y="0" width="100%" height="100%" fill="white"/><g transform="matrix(1.3333333,0,0,-1.3333333,0,682.66667)"><path transform="matrix(1,0,0,1,442,330)" d="m 0,0 c -11.046,0 -20,-8.954 -20,-20 v -238 c 0,-11.028 -8.972,-20 -20,-20 h -37.338 c -4.902,-6.445 -10.172,-12.937 -15.826,-19.462 -6.45,-7.446 -12.861,-14.336 -18.912,-20.538 H -40 c 33.084,0 60,26.916 60,60 V -20 C 20,-8.954 11.046,0 0,0" style="fill:#ffffff;fill-opacity:1;fill-rule:nonzero;stroke:none" id="path576"/><path transform="matrix(1,0,0,1,163.1641,32.5381)" d="m 0,0 c -5.654,6.525 -10.924,13.017 -15.825,19.462 h -37.339 c -11.028,0 -20,8.972 -20,20 v 238 c 0,11.046 -8.954,20 -20,20 -11.046,0 -20,-8.954 -20,-20 v -238 c 0,-33.084 26.916,-60 60,-60 H 18.912 C 12.861,-14.336 6.45,-7.446 0,0" style="fill:#ffffff;fill-opacity:1;fill-rule:nonzero;stroke:none" id="path580"/><path transform="matrix(1,0,0,1,226,173.0957)" d="M 0,0 C 0,16.568 13.432,30 30,30 46.568,30 60,16.568 60,0 60,-16.568 46.568,-30 30,-30 13.432,-30 0,-16.568 0,0" style="fill:#ffffff;fill-opacity:1;fill-rule:nonzero;stroke:none" id="path588"/></g></mask><g mask="url(#custom)"><g id="g564" transform="matrix(1.3333333,0,0,-1.3333333,0,682.66667)">
    <g id="g566">
      <g id="g568" clip-path="url(#clipPath572)">
        <g id="g574" transform="translate(442,330)">
          <path d="m 0,0 c -11.046,0 -20,-8.954 -20,-20 v -238 c 0,-11.028 -8.972,-20 -20,-20 h -37.338 c -4.902,-6.445 -10.172,-12.937 -15.826,-19.462 -6.45,-7.446 -12.861,-14.336 -18.912,-20.538 H -40 c 33.084,0 60,26.916 60,60 V -20 C 20,-8.954 11.046,0 0,0" style="fill:#0b2857;fill-opacity:1;fill-rule:nonzero;stroke:none" id="path576"/>
        </g>
        <g id="g578" transform="translate(163.1641,32.5381)">
          <path d="m 0,0 c -5.654,6.525 -10.924,13.017 -15.825,19.462 h -37.339 c -11.028,0 -20,8.972 -20,20 v 238 c 0,11.046 -8.954,20 -20,20 -11.046,0 -20,-8.954 -20,-20 v -238 c 0,-33.084 26.916,-60 60,-60 H 18.912 C 12.861,-14.336 6.45,-7.446 0,0" style="fill:#0b2857;fill-opacity:1;fill-rule:nonzero;stroke:none" id="path580"/>
        </g>
        <g id="g582" transform="translate(484,276)">
          <path d="M 0,0 -228,198 -456,0" style="fill:none;stroke:#0b2857;stroke-width:40;stroke-linecap:square;stroke-linejoin:miter;stroke-miterlimit:10;stroke-dasharray:none;stroke-opacity:1" id="path584"/>
        </g>
        <g id="g586" transform="translate(226,173.0957)">
          <path d="M 0,0 C 0,16.568 13.432,30 30,30 46.568,30 60,16.568 60,0 60,-16.568 46.568,-30 30,-30 13.432,-30 0,-16.568 0,0" style="fill:#0b2857;fill-opacity:1;fill-rule:nonzero;stroke:none" id="path588"/>
        </g>
        <g id="g590" transform="translate(350.9766,167.0278)">
          <path d="m 0,0 c 0,-64.623 -94.977,-141.937 -94.977,-141.937 0,0 -94.976,77.314 -94.976,141.937 v 5.99 c 0,52.457 42.522,94.982 94.976,94.982 C -42.522,100.972 0,58.447 0,5.99 Z" style="fill:none;stroke:#0b2857;stroke-width:40;stroke-linecap:butt;stroke-linejoin:miter;stroke-miterlimit:10;stroke-dasharray:none;stroke-opacity:1" id="path592"/>
        </g>
      </g>
    </g>
  </g></g>
</svg>
