<svg width="34" height="31" viewBox="0 0 34 31" fill="none" xmlns="http://www.w3.org/2000/svg">
<path fill-rule="evenodd" clip-rule="evenodd" d="M23.076 30.4355C18.3145 30.4355 12.7121 28.1352 8.00735 23.8562C0.500641 17.0228 -1.45887 8.10297 3.54561 3.54831C5.02391 2.20431 6.82249 1.38585 8.89717 1.11303L10.0962 0.955078L14.5091 10.32L10.0962 12.3274C11.1186 14.0907 12.6679 15.9128 14.7015 17.7637C16.6405 19.5284 18.6411 20.9284 20.6495 21.9221L22.7226 18.2275L32.9508 19.5571L33.0108 20.7446C33.1607 23.7011 32.2298 26.1809 30.3192 27.9184C28.4512 29.6185 25.9127 30.4355 23.076 30.4355ZM8.19352 4.20595C7.28634 4.48308 6.4754 4.944 5.77648 5.58154C2.14776 8.88267 4.19247 16.3221 10.2382 21.8258C16.2871 27.3296 24.4596 29.1863 28.0883 25.8866C29.2969 24.7867 29.7323 23.3364 29.8396 22.0527L24.5275 21.3621L23.5083 23.2201C23.1233 23.9208 22.4591 24.4363 21.6371 24.6704C20.8151 24.9073 19.9032 24.8226 19.1396 24.4449C16.8677 23.3206 14.6227 21.7555 12.4691 19.7955C10.213 17.7422 8.47908 15.6903 7.31316 13.6958C6.90769 12.9994 6.83038 12.2039 7.09228 11.4544C7.35418 10.7091 7.92058 10.1075 8.68892 9.75713L10.4339 8.96308L8.19352 4.20595Z" fill="#002856"/>
</svg>
